<svg xmlns="http://www.w3.org/2000/svg" version="1.1" xmlns:xlink="http://www.w3.org/1999/xlink" viewBox="0 0 200 200"><rect width="200" height="200" fill="url('#gradient')"></rect><defs><linearGradient id="gradient" gradientTransform="rotate(45 0.5 0.5)"><stop offset="0%" stop-color="#c1c1c1"></stop><stop offset="100%" stop-color="#3eff19"></stop></linearGradient></defs><g><g fill="#b57f00" transform="matrix(1.7274601686972821,0,0,1.7274601686972821,8.920052345891705,108.94038706800038)" stroke="#49668f" stroke-width="1.1"><path d="M8.41-3.78L8.41-3.78Q8.41-4.53 7.88-4.95Q7.34-5.37 6.01-5.82Q4.67-6.27 3.82-6.69L3.82-6.69Q1.05-8.05 1.05-10.42L1.05-10.42Q1.05-11.60 1.74-12.50Q2.43-13.41 3.69-13.91Q4.95-14.41 6.52-14.41L6.52-14.41Q8.06-14.41 9.27-13.87Q10.49-13.32 11.16-12.31Q11.84-11.30 11.84-10L11.84-10L8.42-10Q8.42-10.87 7.89-11.35Q7.35-11.83 6.45-11.83L6.45-11.83Q5.53-11.83 5.00-11.42Q4.46-11.02 4.46-10.39L4.46-10.39Q4.46-9.84 5.05-9.40Q5.63-8.96 7.11-8.48Q8.58-8.01 9.53-7.46L9.53-7.46Q11.84-6.13 11.84-3.80L11.84-3.80Q11.84-1.93 10.43-0.87Q9.02 0.20 6.57 0.20L6.57 0.20Q4.84 0.20 3.44-0.42Q2.04-1.04 1.33-2.12Q0.63-3.20 0.63-4.61L0.63-4.61L4.06-4.61Q4.06-3.47 4.65-2.92Q5.24-2.38 6.57-2.38L6.57-2.38Q7.42-2.38 7.92-2.75Q8.41-3.12 8.41-3.78ZM13.38-10.57L16.46-10.57L16.57-9.33Q17.67-10.76 19.59-10.76L19.59-10.76Q21.24-10.76 22.06-9.78Q22.87-8.79 22.90-6.81L22.90-6.81L22.90 0L19.60 0L19.60-6.67Q19.60-7.47 19.28-7.85Q18.96-8.22 18.11-8.22L18.11-8.22Q17.14-8.22 16.67-7.46L16.67-7.46L16.67 0L13.38 0L13.38-10.57ZM33.96 0L30.67 0Q30.50-0.32 30.36-0.95L30.36-0.95Q29.45 0.20 27.82 0.20L27.82 0.20Q26.33 0.20 25.28-0.71Q24.24-1.61 24.24-2.98L24.24-2.98Q24.24-4.70 25.51-5.58Q26.78-6.46 29.20-6.46L29.20-6.46L30.21-6.46L30.21-7.01Q30.21-8.47 28.96-8.47L28.96-8.47Q27.78-8.47 27.78-7.31L27.78-7.31L24.49-7.31Q24.49-8.85 25.80-9.80Q27.10-10.76 29.12-10.76Q31.14-10.76 32.31-9.78Q33.49-8.79 33.52-7.07L33.52-7.07L33.52-2.39Q33.54-0.94 33.96-0.17L33.96-0.17L33.96 0ZM28.61-2.15L28.61-2.15Q29.23-2.15 29.63-2.41Q30.04-2.68 30.21-3.01L30.21-3.01L30.21-4.70L29.26-4.70Q27.54-4.70 27.54-3.15L27.54-3.15Q27.54-2.71 27.84-2.43Q28.14-2.15 28.61-2.15ZM45.15-5.36L45.15-5.21Q45.15-2.74 44.04-1.27Q42.93 0.20 41.04 0.20L41.04 0.20Q39.59 0.20 38.65-0.87L38.65-0.87L38.65 4.06L35.36 4.06L35.36-10.57L38.44-10.57L38.54-9.59Q39.48-10.76 41.03-10.76L41.03-10.76Q42.98-10.76 44.06-9.32Q45.15-7.88 45.15-5.36L45.15-5.36ZM41.86-5.06L41.86-5.41Q41.86-8.22 40.21-8.22L40.21-8.22Q39.04-8.22 38.65-7.38L38.65-7.38L38.65-3.22Q39.08-2.34 40.23-2.34L40.23-2.34Q41.81-2.34 41.86-5.06L41.86-5.06ZM59.06-3.78L59.06-3.78Q59.06-4.53 58.53-4.95Q58.00-5.37 56.66-5.82Q55.32-6.27 54.47-6.69L54.47-6.69Q51.71-8.05 51.71-10.42L51.71-10.42Q51.71-11.60 52.40-12.50Q53.09-13.41 54.35-13.91Q55.61-14.41 57.18-14.41L57.18-14.41Q58.71-14.41 59.93-13.87Q61.14-13.32 61.82-12.31Q62.49-11.30 62.49-10L62.49-10L59.07-10Q59.07-10.87 58.54-11.35Q58.01-11.83 57.10-11.83L57.10-11.83Q56.18-11.83 55.65-11.42Q55.12-11.02 55.12-10.39L55.12-10.39Q55.12-9.84 55.70-9.40Q56.29-8.96 57.76-8.48Q59.24-8.01 60.19-7.46L60.19-7.46Q62.49-6.13 62.49-3.80L62.49-3.80Q62.49-1.93 61.08-0.87Q59.68 0.20 57.23 0.20L57.23 0.20Q55.50 0.20 54.10-0.42Q52.70-1.04 51.99-2.12Q51.28-3.20 51.28-4.61L51.28-4.61L54.72-4.61Q54.72-3.47 55.31-2.92Q55.90-2.38 57.23-2.38L57.23-2.38Q58.08-2.38 58.57-2.75Q59.06-3.12 59.06-3.78ZM64.64-13.19L67.93-13.19L67.93-10.57L69.67-10.57L69.67-8.28L67.93-8.28L67.93-3.45Q67.93-2.85 68.14-2.62Q68.36-2.38 68.99-2.38L68.99-2.38Q69.48-2.38 69.81-2.44L69.81-2.44L69.81-0.09Q68.93 0.20 67.96 0.20L67.96 0.20Q66.26 0.20 65.45-0.61Q64.64-1.41 64.64-3.04L64.64-3.04L64.64-8.28L63.29-8.28L63.29-10.57L64.64-10.57L64.64-13.19ZM70.26-4.82L70.25-5.38Q70.25-6.96 70.87-8.20Q71.48-9.43 72.64-10.10Q73.79-10.76 75.34-10.76L75.34-10.76Q77.71-10.76 79.08-9.29Q80.45-7.82 80.45-5.29L80.45-5.29L80.45-5.18Q80.45-2.71 79.08-1.25Q77.71 0.20 75.36 0.20L75.36 0.20Q73.11 0.20 71.74-1.16Q70.37-2.51 70.26-4.82L70.26-4.82ZM73.55-5.77L73.54-5.18Q73.54-3.71 74.00-3.03Q74.46-2.34 75.36-2.34L75.36-2.34Q77.12-2.34 77.16-5.05L77.16-5.05L77.16-5.38Q77.16-8.22 75.34-8.22L75.34-8.22Q73.69-8.22 73.55-5.77L73.55-5.77ZM88.35-10.64L88.29-7.59L87.21-7.67Q85.65-7.67 85.21-6.69L85.21-6.69L85.21 0L81.92 0L81.92-10.57L85.01-10.57L85.12-9.21Q85.95-10.76 87.43-10.76L87.43-10.76Q87.96-10.76 88.35-10.64L88.35-10.64ZM89.50-10.57L92.59-10.57L92.70-9.33Q93.82-10.76 95.71-10.76L95.71-10.76Q97.71-10.76 98.42-9.17L98.42-9.17Q99.49-10.76 101.52-10.76L101.52-10.76Q104.74-10.76 104.82-6.88L104.82-6.88L104.82 0L101.52 0L101.52-6.67Q101.52-7.48 101.25-7.85Q100.98-8.22 100.25-8.22L100.25-8.22Q99.28-8.22 98.80-7.35L98.80-7.35L98.81-7.22L98.81 0L95.51 0L95.51-6.65Q95.51-7.48 95.24-7.85Q94.98-8.22 94.24-8.22L94.24-8.22Q93.29-8.22 92.79-7.35L92.79-7.35L92.79 0L89.50 0L89.50-10.57Z"></path></g></g></svg>